<?xml version="1.0" encoding="UTF-8"?>
<!DOCTYPE svg PUBLIC "-//W3C//DTD SVG 1.1//EN" "http://www.w3.org/Graphics/SVG/1.1/DTD/svg11.dtd">
<!-- Creator: CorelDRAW X8 -->
<svg xmlns="http://www.w3.org/2000/svg" xml:space="preserve" width="1600px" height="1771px" version="1.1" style="shape-rendering:geometricPrecision; text-rendering:geometricPrecision; image-rendering:optimizeQuality; fill-rule:evenodd; clip-rule:evenodd"
viewBox="0 0 1600 1771"
 xmlns:xlink="http://www.w3.org/1999/xlink">
 <defs>
  <style type="text/css">
   <![CDATA[
    .fil1 {fill:none;fill-rule:nonzero}
    .fil0 {fill:#C99F69;fill-rule:nonzero}
   ]]>
  </style>
 </defs>
 <g id="Layer_x0020_1">
  <metadata id="CorelCorpID_0Corel-Layer"/>
  <path class="fil0" d="M1400 772c-2,6 -3,13 -7,17 -4,4 -11,5 -16,7 21,3 18,7 22,22 1,-5 2,-12 6,-16 4,-4 11,-5 18,-7 -17,0 -24,-8 -23,-23zm113 256c-1,3 -2,7 -4,9 -2,2 -5,3 -8,4 11,2 9,4 11,11 1,-2 2,-6 4,-8 2,-2 5,-2 9,-4 -9,1 -12,-4 -12,-12zm-1403 600c-1,3 -2,7 -4,9 -1,2 -5,3 -8,4 11,1 10,3 11,11 1,-3 2,-6 4,-8 2,-2 6,-3 9,-4 -9,0 -12,-4 -12,-12zm187 -388c1,-3 1,-7 3,-9 2,-2 6,-2 9,-4 -9,1 -12,-4 -12,-11 -1,3 -1,6 -3,9 -2,2 -6,2 -9,3 11,2 10,4 12,12zm960 180c-1,3 -2,7 -4,9 -2,2 -5,3 -8,4 11,1 9,3 11,11 1,-3 2,-6 4,-8 2,-2 5,-3 9,-4 -9,0 -12,-4 -12,-12zm-1091 -412c-1,3 -1,6 -3,8 -2,3 -6,3 -9,4 11,2 10,4 12,12 1,-3 1,-7 3,-9 2,-2 6,-2 9,-4 -8,1 -12,-4 -12,-11zm1046 -829c-1,3 -2,7 -4,9 -1,2 -5,3 -8,4 11,1 10,3 11,11 1,-2 2,-6 4,-8 2,-2 6,-3 9,-4 -9,0 -12,-4 -12,-12zm369 -54c1,-2 1,-6 3,-8 2,-2 6,-3 9,-4 -8,1 -12,-4 -12,-12 -1,3 -1,7 -3,9 -2,2 -6,3 -9,4 11,1 10,3 12,11zm-1031 12c1,-2 2,-6 4,-8 2,-2 6,-3 9,-4 -9,1 -12,-4 -12,-12 -1,3 -1,7 -4,9 -1,2 -5,3 -8,4 11,1 10,3 11,11zm-164 249c-1,3 -1,7 -3,9 -2,2 -6,2 -9,3 11,2 10,4 12,12 1,-3 1,-7 3,-9 2,-2 6,-2 9,-3 -8,0 -12,-5 -12,-12zm902 1224c-1,3 -1,5 -2,8 -1,3 -3,5 -6,6 -2,0 -5,1 -8,1 1,0 2,0 2,1 2,0 4,0 7,1 3,0 4,2 5,6 1,2 1,5 2,7 1,-4 0,-8 3,-11 3,-4 8,-3 12,-4 -4,-1 -9,0 -12,-3 -3,-4 -2,-8 -3,-12zm-746 -29c-1,5 -2,10 -3,15 -1,6 -5,10 -12,11 -5,1 -10,2 -16,3 2,0 3,1 5,1 4,1 8,1 12,2 6,2 10,6 11,12 1,5 2,10 3,15 2,-8 1,-17 7,-23 6,-6 15,-5 23,-7 -8,-2 -17,-1 -23,-7 -6,-6 -5,-15 -7,-22zm746 -1282c-1,5 -2,10 -3,15 -1,6 -5,10 -12,11 -5,1 -10,2 -16,3 2,1 3,1 5,1 4,1 8,1 12,2 6,2 10,6 11,12 1,5 2,10 3,15 2,-8 1,-17 7,-23 6,-6 15,-5 23,-7 -8,-1 -17,-1 -23,-7 -6,-6 -5,-15 -7,-22zm-909 -58c5,-5 11,-4 16,-5 -5,-1 -11,-1 -16,-5 -4,-4 -3,-10 -4,-15 -1,3 -1,7 -2,10 -1,4 -4,7 -8,8 -3,1 -7,1 -11,2 1,0 2,0 3,0 3,1 6,1 8,2 5,1 7,4 8,8 1,3 1,6 2,10 1,-5 0,-11 4,-15zm-273 -52c-3,-1 -5,-3 -7,-6 -2,-5 -2,-9 -3,-13 0,-2 0,-4 0,-5 -1,3 -1,7 -2,10 0,3 -1,6 -3,9 -2,4 -6,5 -10,6 -4,1 -8,1 -12,2 0,0 1,0 1,0 4,1 9,1 13,2 3,0 5,2 7,3 3,3 4,7 4,11 1,3 1,7 2,10 0,-4 1,-8 1,-12 1,-3 2,-6 4,-8 2,-3 6,-4 9,-5 4,0 7,-1 11,-1 1,0 1,0 1,0 -1,-1 -3,-1 -5,-1 -4,-1 -7,-1 -11,-2zm1482 1326c-8,-1 -15,-2 -22,-5 -7,-2 -12,-6 -15,-12 -4,-9 -5,-18 -6,-28 -1,-3 -1,-6 -1,-10 -2,8 -2,15 -4,22 -1,7 -2,13 -6,19 -5,7 -13,10 -22,12 -8,1 -16,2 -25,4 1,0 2,0 3,0 9,1 18,3 27,4 6,1 11,4 14,8 6,6 8,14 9,22 2,7 2,14 3,21 2,-8 3,-17 4,-26 1,-6 4,-12 8,-17 5,-5 11,-7 18,-9 8,-1 16,-2 24,-3 1,0 2,0 3,0 -4,-1 -8,-2 -12,-2zm-1316 -892c1,0 2,0 3,0 -4,-1 -8,-1 -12,-2 -8,-1 -15,-2 -23,-4 -6,-3 -11,-7 -14,-13 -4,-9 -5,-18 -6,-27 -1,-4 -1,-7 -2,-11 -1,8 -2,15 -3,22 -1,7 -2,13 -6,19 -5,8 -13,11 -22,12 -8,2 -16,3 -25,4 1,0 2,0 3,0 9,2 18,3 27,5 6,1 10,3 14,7 6,6 8,14 9,22 2,7 2,15 3,21 2,-8 3,-17 4,-26 1,-6 3,-12 8,-16 5,-6 11,-8 18,-9 8,-2 16,-3 24,-4zm48 795c-7,-2 -12,-6 -15,-12 -4,-9 -5,-18 -6,-28 -1,-3 -1,-6 -1,-10 -1,7 -2,15 -3,22 -1,7 -3,13 -7,19 -5,7 -13,10 -21,12 -9,1 -17,2 -26,4 1,0 2,0 3,0 9,1 18,3 27,4 6,1 11,4 15,8 6,6 7,14 9,22 1,7 2,14 3,21 1,-8 2,-17 4,-26 1,-6 3,-12 7,-17 5,-5 12,-7 19,-9 7,-1 15,-2 23,-3 1,0 2,0 3,0 -4,-1 -8,-2 -12,-2 -7,-1 -15,-2 -22,-5zm1167 -891c-9,-1 -18,-3 -27,-4 -1,0 -2,0 -4,0 9,-2 18,-3 26,-4 9,-2 17,-5 22,-12 4,-6 5,-12 6,-19 1,-7 2,-15 3,-22 1,4 1,7 1,10 2,10 3,19 7,28 3,6 8,10 14,12 8,3 15,4 23,5 4,0 8,1 11,2 0,0 -1,0 -2,0 -8,1 -16,2 -24,3 -7,2 -13,4 -18,9 -5,5 -7,11 -8,17 -1,9 -3,18 -4,26 -1,-7 -2,-14 -3,-21 -1,-8 -3,-16 -9,-22 -4,-4 -9,-7 -14,-8z"/>
 </g>
</svg>
